<?xml version="1.0" encoding="UTF-8" standalone="no"?>
<!-- Generator: Adobe Illustrator 19.0.0, SVG Export Plug-In . SVG Version: 6.00 Build 0)  -->

<svg
   xmlns:dc="http://purl.org/dc/elements/1.1/"
   xmlns:cc="http://creativecommons.org/ns#"
   xmlns:rdf="http://www.w3.org/1999/02/22-rdf-syntax-ns#"
   xmlns:svg="http://www.w3.org/2000/svg"
   xmlns="http://www.w3.org/2000/svg"
   xmlns:sodipodi="http://sodipodi.sourceforge.net/DTD/sodipodi-0.dtd"
   xmlns:inkscape="http://www.inkscape.org/namespaces/inkscape"
   version="1.1"
   id="Capa_1"
   x="0px"
   y="0px"
   viewBox="0 0 512 512"
   style="enable-background:new 0 0 512 512;"
   xml:space="preserve"
   sodipodi:docname="laundry.svg"
   inkscape:version="0.92.2 5c3e80d, 2017-08-06"><metadata
     id="metadata1100"><rdf:RDF><cc:Work
         rdf:about=""><dc:format>image/svg+xml</dc:format><dc:type
           rdf:resource="http://purl.org/dc/dcmitype/StillImage" /></cc:Work></rdf:RDF></metadata><defs
     id="defs1098" /><sodipodi:namedview
     pagecolor="#ffffff"
     bordercolor="#666666"
     borderopacity="1"
     objecttolerance="10"
     gridtolerance="10"
     guidetolerance="10"
     inkscape:pageopacity="0"
     inkscape:pageshadow="2"
     inkscape:window-width="1600"
     inkscape:window-height="845"
     id="namedview1096"
     showgrid="false"
     inkscape:zoom="0.4609375"
     inkscape:cx="256"
     inkscape:cy="256"
     inkscape:window-x="0"
     inkscape:window-y="27"
     inkscape:window-maximized="1"
     inkscape:current-layer="Capa_1" /><g
     id="g1683"
     transform="matrix(0.71250001,0,0,0.71250001,535.78304,307.01017)"><circle
       r="347.11865"
       cy="-71.593216"
       cx="-392.67798"
       id="path1645"
       style="opacity:1;fill:#ffffff;fill-opacity:1;stroke:none;stroke-width:6.83338594;stroke-miterlimit:4;stroke-dasharray:none;stroke-opacity:1" /><g
       transform="matrix(0.56355932,0,0,0.56355932,-536.94916,-215.8644)"
       id="g1665"><path
         inkscape:connector-curvature="0"
         style="fill:#17ace8"
         d="M 211,0 H 76 C 51.186,0 31,20.186 31,45 v 75 l 30,30 h 150 l 30,-30 V 30 Z"
         id="path1037" /><path
         inkscape:connector-curvature="0"
         style="fill:#1689fc"
         d="M 436,0 H 211 v 150 h 240 l 30,-30 V 45 C 481,20.186 460.814,0 436,0 Z"
         id="path1039" /><path
         inkscape:connector-curvature="0"
         style="fill:#136ef1"
         d="M 436,0 H 256 v 150 h 195 l 30,-30 V 45 C 481,20.186 460.814,0 436,0 Z"
         id="path1041" /><path
         inkscape:connector-curvature="0"
         style="fill:#e1e4fb"
         d="M 481,120.044 V 466 c 0,24.899 -20.099,46 -45,46 H 76 C 51.099,512 31,490.899 31,466 V 120.044 Z"
         id="path1043" /><path
         inkscape:connector-curvature="0"
         style="fill:#c5c9f7"
         d="M 481,120.044 V 466 c 0,24.899 -20.099,46 -45,46 H 256 V 120.044 Z"
         id="path1045" /><path
         inkscape:connector-curvature="0"
         style="fill:#a8aff1"
         d="m 256,180 c -74.399,0 -135,60.599 -135,135 0,74.399 60.601,136 135,136 74.399,0 135,-61.601 135,-136 0,-74.401 -60.601,-135 -135,-135 z"
         id="path1047" /><path
         inkscape:connector-curvature="0"
         style="fill:#97a1ed"
         d="m 391,315 c 0,74.399 -60.601,136 -135,136 V 180 c 74.399,0 135,60.599 135,135 z"
         id="path1049" /><path
         inkscape:connector-curvature="0"
         style="fill:#ffcc33"
         d="m 376,90 h -60 c -8.291,0 -15,-6.709 -15,-15 0,-8.291 6.709,-15 15,-15 h 60 c 8.291,0 15,6.709 15,15 0,8.291 -6.709,15 -15,15 z"
         id="path1051" /><circle
         style="fill:#32d736"
         cx="166"
         cy="75"
         r="15"
         id="circle1053" /><path
         inkscape:connector-curvature="0"
         style="fill:#17ace8"
         d="M 353.5,276.299 321.7,311.1 h -150 L 161.201,270.899 C 177.7,234.899 213.999,210 256,210 c 44.099,0 81.899,27.599 97.5,66.299 z"
         id="path1055" /><path
         inkscape:connector-curvature="0"
         style="fill:#1689fc"
         d="M 353.5,276.299 321.7,311.1 H 256 V 210 c 44.099,0 81.899,27.599 97.5,66.299 z"
         id="path1057" /><path
         inkscape:connector-curvature="0"
         style="fill:#1de8f1"
         d="m 361,315 c 0,0.899 -0.3,1.8 -0.3,2.699 C 359.2,374.399 313.001,421 256,421 198.1,421 151,372.9 151,315 c 0,-5.4 0.901,-10.501 1.5,-15.601 1.5,-9.901 4.501,-19.501 8.701,-28.5 10.8,3.6 21.299,9.3 30.599,18.001 19.801,17.999 43.801,19.799 64.2,4.499 2.1,-1.199 3.9,-2.699 5.7,-4.499 27.001,-24.6 61.8,-28.801 91.8,-12.601 4.799,12.001 7.5,24.9 7.5,38.701 z"
         id="path1059" /><path
         inkscape:connector-curvature="0"
         style="fill:#1bd9de"
         d="m 361,315 c 0,0.899 -0.3,1.8 -0.3,2.699 C 359.2,374.399 313.001,421 256,421 V 293.399 c 2.1,-1.199 3.9,-2.699 5.7,-4.499 27.001,-24.6 61.8,-28.801 91.8,-12.601 4.799,12.001 7.5,24.9 7.5,38.701 z"
         id="path1061" /><circle
         style="fill:#fd003a"
         cx="106"
         cy="75"
         r="15"
         id="circle1063" /></g></g><g
     id="g1065" /><g
     id="g1067" /><g
     id="g1069" /><g
     id="g1071" /><g
     id="g1073" /><g
     id="g1075" /><g
     id="g1077" /><g
     id="g1079" /><g
     id="g1081" /><g
     id="g1083" /><g
     id="g1085" /><g
     id="g1087" /><g
     id="g1089" /><g
     id="g1091" /><g
     id="g1093" /></svg>